<?xml version="1.0" standalone="no"?>
<!DOCTYPE svg PUBLIC "-//W3C//DTD SVG 20010904//EN"
 "http://www.w3.org/TR/2001/REC-SVG-20010904/DTD/svg10.dtd">
<svg version="1.0" xmlns="http://www.w3.org/2000/svg"
 width="500.000000pt" height="500.000000pt" viewBox="0 0 500.000000 500.000000"
 preserveAspectRatio="xMidYMid meet">

<g transform="translate(0.000000,500.000000) scale(0.100000,-0.100000)"
fill="#000000" stroke="none">
<path d="M722 2889 c-6 -24 -56 -251 -112 -503 -56 -253 -106 -470 -111 -483
l-9 -23 -245 0 -245 0 0 -36 0 -35 289 3 c159 2 292 6 296 10 6 6 165 719 165
741 0 38 37 -42 150 -325 146 -369 179 -448 190 -448 4 0 74 171 156 381 157
401 159 407 169 397 3 -3 43 -175 88 -382 l82 -376 48 0 c38 0 47 3 47 18 0 9
-18 100 -40 202 -23 102 -75 340 -116 530 -42 190 -79 348 -82 352 -7 7 -68
-142 -248 -607 -53 -137 -99 -253 -103 -257 -7 -9 -22 28 -213 522 -72 184
-133 341 -138 349 -4 9 -11 -2 -18 -30z"/>
<path d="M1946 2907 c-21 -84 -236 -1070 -236 -1082 0 -17 65 -21 88 -6 11 6
171 703 172 744 0 38 37 -42 150 -325 146 -369 179 -448 190 -448 4 0 75 174
158 387 84 212 154 388 157 391 3 3 7 3 10 0 4 -3 43 -175 88 -382 l82 -376
1098 0 1097 0 0 35 0 35 -1049 0 c-664 0 -1052 4 -1056 10 -3 5 -55 236 -116
512 -61 276 -113 507 -116 512 -7 11 -20 -20 -195 -469 -77 -198 -144 -371
-150 -385 l-10 -25 -15 35 c-8 19 -85 215 -170 435 -85 220 -158 406 -163 414
-5 10 -9 6 -14 -12z"/>
</g>
</svg>
