<?xml version="1.0" standalone="no"?>
<!DOCTYPE svg PUBLIC "-//W3C//DTD SVG 20010904//EN"
 "http://www.w3.org/TR/2001/REC-SVG-20010904/DTD/svg10.dtd">
<svg version="1.0" xmlns="http://www.w3.org/2000/svg"
 width="500.000000pt" height="500.000000pt" viewBox="0 0 500.000000 500.000000"
 preserveAspectRatio="xMidYMid meet">

<g transform="translate(0.000000,500.000000) scale(0.100000,-0.100000)"
fill="#000000" stroke="none">
<path d="M728 2938 c-3 -7 -56 -246 -119 -530 l-113 -518 -248 0 -248 0 0 -40
0 -40 299 0 298 0 6 38 c12 73 150 707 156 714 3 4 78 -177 166 -402 88 -225
163 -404 166 -397 4 7 76 189 160 405 84 215 155 392 159 392 3 0 41 -161 84
-357 42 -197 80 -366 82 -376 5 -16 17 -17 102 -15 l96 3 81 372 c44 204 82
374 85 376 3 3 77 -179 165 -403 140 -358 161 -407 171 -387 6 12 78 194 159
405 82 210 151 382 155 382 3 0 41 -161 84 -357 42 -197 79 -366 82 -375 5
-17 67 -18 1125 -18 l1119 0 0 40 0 40 -1072 0 -1073 0 -115 530 c-63 292
-117 530 -120 530 -3 0 -83 -206 -179 -457 l-175 -456 -22 59 c-120 317 -325
848 -329 852 -7 7 -7 9 -120 -513 -98 -454 -122 -556 -124 -530 -1 6 -42 197
-91 425 -50 228 -101 461 -113 518 -11 56 -24 102 -27 102 -3 0 -83 -206 -179
-456 -121 -315 -177 -450 -182 -438 -41 111 -341 889 -343 892 -2 1 -6 -3 -8
-10z"/>
</g>
</svg>
